#!OML:ASF X:\für Bonn\!DataBase\2005_08_11_Bastian_Final\c3d\Bastian.ASF
:FULLY-SPECIFIED
:DEGREES
128
root 6.26272 11.3488 -3.23661 810.849 77.5851 -267.453
lowerback 65.6045 -12.964 14.5474
upperback 16.1044 1.37554 7.25902
thorax -2.34742 2.57127 1.88125
lowerneck -3.07951 -11.6438 6.52652
upperneck -27.6704 -13.4864 11.9979
head -7.73449 -8.20786 3.65493
rclavicle 6.99722e-014 -4.44284e-014
rhumerus 32.7345 -10.1639 -42.7542
rradius 25.5471
rwrist 9.38989
rhand -42.6269 0.984887
rfingers 7.12502
rthumb -15.499 -28.4139
lclavicle 6.99722e-014 -4.44284e-014
lhumerus 18.8097 -24.5084 65.1308
lradius 66.8394
lwrist 18.0484
lhand -12.3236 -12.0496
lfingers 7.12502
lthumb 13.7451 17.4764
rfemur -75.6123 -11.6403 4.33827
rtibia 113.031
rfoot -25.9695 -3.64843
rtoes -19.7619
lfemur -64.8547 4.63032 -41.7139
ltibia 108.763
lfoot -30.6191 -15.2871
ltoes 26.2069
129
root 6.28408 11.3284 -3.22731 811.051 77.6409 -267.545
lowerback 65.6594 -12.9167 14.5289
upperback 16.1465 1.44728 7.36113
thorax -2.30588 2.59094 1.97901
lowerneck -3.08822 -11.3876 6.58286
upperneck -28.0008 -13.2041 11.4648
head -7.90125 -8.02983 3.48608
rclavicle 1.11319e-013 9.02482e-014
rhumerus 32.7805 -10.4851 -42.9469
rradius 25.8509
rwrist 9.85105
rhand -43.0839 1.17597
rfingers 7.12502
rthumb -15.9392 -28.1882
lclavicle 1.11319e-013 9.02482e-014
lhumerus 19.1955 -24.6076 65.185
lradius 66.4828
lwrist 17.863
lhand -12.0482 -11.9828
lfingers 7.12502
lthumb 14.0106 17.525
rfemur -76.0627 -11.9611 4.5977
rtibia 113.272
rfoot -26.1192 -3.49116
rtoes -19.5965
lfemur -65.2463 4.51943 -41.6416
ltibia 109.051
lfoot -30.814 -15.2878
ltoes 26.1857
130
root 6.3049 11.3135 -3.21834 811.255 77.6678 -267.649
lowerback 65.7567 -12.8745 14.5171
upperback 16.13 1.51992 7.44066
thorax -2.32832 2.60584 2.04931
lowerneck -2.95119 -11.1436 6.63794
upperneck -28.4118 -12.9169 10.9589
head -8.11813 -7.85546 3.33916
rclavicle -1.145e-013 4.35835e-014
rhumerus 32.7564 -10.7827 -43.1452
rradius 26.1749
rwrist 10.3371
rhand -43.7701 1.34014
rfingers 7.12502
rthumb -16.5999 -27.9699
lclavicle -1.145e-013 4.35835e-014
lhumerus 19.5375 -24.7445 65.2079
lradius 66.171
lwrist 17.7487
lhand -11.664 -11.8279
lfingers 7.12502
lthumb 14.3807 17.654
rfemur -76.5103 -12.2716 4.82434
rtibia 113.474
rfoot -26.2462 -3.31813
rtoes -19.4013
lfemur -65.5942 4.37834 -41.5886
ltibia 109.266
lfoot -30.9882 -15.2836
ltoes 26.0742
131
root 6.32476 11.3044 -3.20907 811.466 77.6981 -267.713
lowerback 65.9435 -12.8796 14.5332
upperback 16.044 1.57213 7.46401
thorax -2.41883 2.61157 2.0592
lowerneck -2.66103 -10.9184 6.85509
upperneck -28.9271 -12.6577 10.3496
head -8.4203 -7.70483 3.1531
rclavicle 4.45278e-014 1.07679e-013
rhumerus 32.69 -11.0588 -43.4219
rradius 26.4836
rwrist 10.8397
rhand -44.3201 1.53771
rfingers 7.12502
rthumb -17.1294 -27.7272
lclavicle 4.45278e-014 1.07679e-013
lhumerus 19.8034 -24.9482 65.1697
lradius 65.8439
lwrist 17.6405
lhand -11.3355 -11.756
lfingers 7.12502
lthumb 14.6972 17.7031
rfemur -76.8648 -12.5673 5.05042
rtibia 113.62
rfoot -26.3672 -3.18003
rtoes -19.1457
lfemur -65.8817 4.25345 -41.5225
ltibia 109.436
lfoot -31.1614 -15.2866
ltoes 25.9337
132
root 6.34417 11.3003 -3.1997 811.512 77.6971 -268.01
lowerback 66.0979 -12.8305 14.5215
upperback 15.943 1.64515 7.48681
thorax -2.53324 2.61986 2.06555
lowerneck -2.57895 -10.6826 6.91255
upperneck -29.2493 -12.4032 9.81687
head -8.59663 -7.53661 2.98211
rclavicle 6.99722e-014 -1.41181e-013
rhumerus 32.5869 -11.2562 -43.6183
rradius 26.8298
rwrist 11.1444
rhand -44.9315 1.82364
rfingers 7.12502
rthumb -17.7177 -27.3892
lclavicle 6.99722e-014 -1.41181e-013
lhumerus 20.0363 -25.1984 65.1255
lradius 65.5322
lwrist 17.4891
lhand -11.0757 -11.7173
lfingers 7.12502
lthumb 14.9476 17.7233
rfemur -77.2823 -12.7984 5.26061
rtibia 113.722
rfoot -26.4519 -3.06982
rtoes -18.9636
lfemur -66.2005 4.12661 -41.4848
ltibia 109.546
lfoot -31.3005 -15.2788
ltoes 25.816
133
root 6.36405 11.2993 -3.1899 811.727 77.6988 -268.107
lowerback 66.2702 -12.8233 14.5384
upperback 15.8165 1.699 7.50485
thorax -2.67094 2.62002 2.06569
lowerneck -2.66067 -10.4532 6.63917
upperneck -29.3886 -12.134 9.54612
head -8.6296 -7.34411 2.9162
rclavicle 1.90833e-014 6.48286e-014
rhumerus 32.4639 -11.4208 -43.7805
rradius 27.1647
rwrist 11.4583
rhand -45.3904 1.95357
rfingers 7.12502
rthumb -18.1593 -27.2188
lclavicle 1.90833e-014 6.48286e-014
lhumerus 20.2361 -25.4931 65.0608
lradius 65.2185
lwrist 17.3139
lhand -10.8259 -11.6413
lfingers 7.12502
lthumb 15.1882 17.7813
rfemur -77.6206 -13.0498 5.44661
rtibia 113.794
rfoot -26.5651 -2.92584
rtoes -18.7236
lfemur -66.4762 4.00635 -41.4577
ltibia 109.627
lfoot -31.4258 -15.2126
ltoes 25.6254
134
root 6.38351 11.3028 -3.18104 811.81 77.7613 -268.352
lowerback 66.4219 -12.8429 14.6513
upperback 15.6862 1.77006 7.4863
thorax -2.79868 2.63531 1.98365
lowerneck -2.73235 -10.2693 6.39613
upperneck -29.54 -11.9326 9.26595
head -8.67123 -7.18698 2.84886
rclavicle -6.67916e-014 -1.43473e-013
rhumerus 32.2658 -11.594 -43.9313
rradius 27.4741
rwrist 11.7178
rhand -45.8272 2.17831
rfingers 7.12502
rthumb -18.5795 -26.9544
lclavicle -6.67916e-014 -1.43473e-013
lhumerus 20.4595 -25.8803 64.9506
lradius 64.9059
lwrist 17.1083
lhand -10.7195 -11.6515
lfingers 7.12502
lthumb 15.2907 17.7633
rfemur -77.9463 -13.1841 5.68104
rtibia 113.81
rfoot -26.6248 -2.85381
rtoes -18.6333
lfemur -66.7519 3.90594 -41.3586
ltibia 109.666
lfoot -31.5613 -15.1597
ltoes 25.4168
